ffmpeg started on 2026-01-20 at 18:40:37
Report written to "D:\Convert\FFMetrics\reports\psnr_report-6.txt"
Log level: 32
Command line:
ffmpeg -hide_banner -nostdin -r 24000/1001 -i "F:\\Convert\\files\\[DC] Make Heroine ga Oosugiru - 07_Telegram_HEVC(214).mkv" -r 24000/1001 -i "F:\\Convert\\files\\[DC] Make Heroine ga Oosugiru - 07_Telegram.mp4" -lavfi "[0:v]settb=AVTB,setpts=PTS-STARTPTS,format=pix_fmts=yuv420p10le,fps=24000/1001,scale=1920:1080:flags=lanczos:param0=3:out_range=limited:out_color_matrix=bt709:out_chroma_loc=left,setsar=1/1,setdar=(1920/1080)*(1/1),colorspace=format=yuv420p10:range=tv:primaries=bt709:trc=bt709:space=bt709:fast=0[main];[1:v]settb=AVTB,setpts=PTS-STARTPTS,format=pix_fmts=yuv420p,fps=24000/1001,scale=1920:1080:flags=lanczos:param0=3:out_range=limited:out_color_matrix=bt709:out_chroma_loc=left,setsar=1.000,setdar=1.778,colorspace=format=yuv420p:range=tv:primaries=bt709:trc=bt709:space=bt709:fast=0[ref];[main][ref]psnr=eof_action=endall:stats_file='D\\:/Convert/FFMetrics/logs/psnr_logfile-6.txt'" -f null -
Input #0, matroska,webm, from 'F:\Convert\files\[DC] Make Heroine ga Oosugiru - 07_Telegram_HEVC(214).mkv':
  Metadata:
    COMPATIBLE_BRANDS: isomiso2avc1mp41
    MAJOR_BRAND     : isom
    MINOR_VERSION   : 512
    ENCODER         : Lavf61.7.100
  Duration: 00:24:06.79, start: -0.021000, bitrate: 909 kb/s
  Stream #0:0: Video: hevc (Main 10), yuv420p10le(tv, bt709, progressive), 1920x1080 [SAR 1:1 DAR 16:9], 23.98 fps, 23.98 tbr, 1k tbn (default)
      Metadata:
        HANDLER_NAME    : VideoHandler
        VENDOR_ID       : [0][0][0][0]
        ENCODER         : Lavc61.19.100 libx265
        BPS             : 711937
        DURATION        : 00:24:06.569708333
        NUMBER_OF_FRAMES: 34683
        NUMBER_OF_BYTES : 128733424
        _STATISTICS_WRITING_APP: mkvpropedit v94.0 ('Initiate') 64-bit
        _STATISTICS_WRITING_DATE_UTC: 2026-01-20 13:55:39
        _STATISTICS_TAGS: BPS DURATION NUMBER_OF_FRAMES NUMBER_OF_BYTES
  Stream #0:1: Audio: aac (LC), 48000 Hz, stereo, fltp (default)
      Metadata:
        HANDLER_NAME    : SoundHandler
        VENDOR_ID       : [0][0][0][0]
        ENCODER         : Lavc61.19.100 aac
        BPS             : 193194
        DURATION        : 00:24:06.784000000
        NUMBER_OF_FRAMES: 67819
        NUMBER_OF_BYTES : 34938755
        _STATISTICS_WRITING_APP: mkvpropedit v94.0 ('Initiate') 64-bit
        _STATISTICS_WRITING_DATE_UTC: 2026-01-20 13:55:39
        _STATISTICS_TAGS: BPS DURATION NUMBER_OF_FRAMES NUMBER_OF_BYTES
Input #1, mov,mp4,m4a,3gp,3g2,mj2, from 'F:\Convert\files\[DC] Make Heroine ga Oosugiru - 07_Telegram.mp4':
  Metadata:
    major_brand     : isom
    minor_version   : 512
    compatible_brands: isomiso2avc1mp41
    encoder         : Lavf60.16.100
  Duration: 00:24:06.74, start: 0.000000, bitrate: 3764 kb/s
  Stream #1:0[0x1](und): Video: h264 (High) (avc1 / 0x31637661), yuv420p(tv, bt709, progressive), 1920x1080 [SAR 1:1 DAR 16:9], 3616 kb/s, 23.98 fps, 23.98 tbr, 24k tbn (default)
      Metadata:
        handler_name    : VideoHandler
        vendor_id       : [0][0][0][0]
        encoder         : Lavc60.31.102 h264_qsv
  Stream #1:1[0x2](und): Audio: aac (HE-AACv2) (mp4a / 0x6134706D), 48000 Hz, stereo, fltp, 144 kb/s (default)
      Metadata:
        handler_name    : SoundHandler
        vendor_id       : [0][0][0][0]
Stream mapping:
  Stream #0:0 (hevc) -> settb:default
  Stream #1:0 (h264) -> settb:default
  psnr:default -> Stream #0:0 (wrapped_avframe)
  Stream #0:1 -> #0:1 (aac (native) -> pcm_s16le (native))
Output #0, null, to 'pipe:':
  Metadata:
    COMPATIBLE_BRANDS: isomiso2avc1mp41
    MAJOR_BRAND     : isom
    MINOR_VERSION   : 512
    encoder         : Lavf61.7.100
  Stream #0:0: Video: wrapped_avframe, yuv420p10le(tv, bt709, progressive), 1920x1080 [SAR 1:1 DAR 16:9], q=2-31, 200 kb/s, 23.98 fps, 23.98 tbn
      Metadata:
        encoder         : Lavc61.19.100 wrapped_avframe
  Stream #0:1: Audio: pcm_s16le, 48000 Hz, stereo, s16, 1536 kb/s (default)
      Metadata:
        HANDLER_NAME    : SoundHandler
        VENDOR_ID       : [0][0][0][0]
        _STATISTICS_TAGS: BPS DURATION NUMBER_OF_FRAMES NUMBER_OF_BYTES
        BPS             : 193194
        DURATION        : 00:24:06.784000000
        NUMBER_OF_FRAMES: 67819
        NUMBER_OF_BYTES : 34938755
        _STATISTICS_WRITING_APP: mkvpropedit v94.0 ('Initiate') 64-bit
        _STATISTICS_WRITING_DATE_UTC: 2026-01-20 13:55:39
        encoder         : Lavc61.19.100 pcm_s16le
frame=  139 fps=0.0 q=-0.0 size=N/A time=00:00:05.79 bitrate=N/A speed=11.3x    frame=  331 fps=317 q=-0.0 size=N/A time=00:00:13.80 bitrate=N/A speed=13.2x    frame=  523 fps=337 q=-0.0 size=N/A time=00:00:21.81 bitrate=N/A speed=  14x    frame=  719 fps=348 q=-0.0 size=N/A time=00:00:29.98 bitrate=N/A speed=14.5x    frame=  894 fps=347 q=-0.0 size=N/A time=00:00:37.28 bitrate=N/A speed=14.5x    frame= 1048 fps=338 q=-0.0 size=N/A time=00:00:43.71 bitrate=N/A speed=14.1x    frame= 1214 fps=336 q=-0.0 size=N/A time=00:00:50.63 bitrate=N/A speed=  14x    frame= 1373 fps=333 q=-0.0 size=N/A time=00:00:57.26 bitrate=N/A speed=13.9x    frame= 1531 fps=329 q=-0.0 size=N/A time=00:01:03.85 bitrate=N/A speed=13.7x    frame= 1672 fps=324 q=-0.0 size=N/A time=00:01:09.73 bitrate=N/A speed=13.5x    frame= 1838 fps=324 q=-0.0 size=N/A time=00:01:16.65 bitrate=N/A speed=13.5x    frame= 2005 fps=324 q=-0.0 size=N/A time=00:01:23.62 bitrate=N/A speed=13.5x    frame= 2121 fps=316 q=-0.0 size=N/A time=00:01:28.46 bitrate=N/A speed=13.2x    frame= 2280 fps=315 q=-0.0 size=N/A time=00:01:35.09 bitrate=N/A speed=13.1x    frame= 2427 fps=313 q=-0.0 size=N/A time=00:01:41.22 bitrate=N/A speed=13.1x    frame= 2562 fps=310 q=-0.0 size=N/A time=00:01:46.85 bitrate=N/A speed=12.9x    frame= 2738 fps=311 q=-0.0 size=N/A time=00:01:54.19 bitrate=N/A speed=  13x    frame= 2910 fps=313 q=-0.0 size=N/A time=00:02:01.37 bitrate=N/A speed=  13x    frame= 3089 fps=315 q=-0.0 size=N/A time=00:02:08.83 bitrate=N/A speed=13.1x    frame= 3287 fps=318 q=-0.0 size=N/A time=00:02:17.09 bitrate=N/A speed=13.3x    frame= 3481 fps=321 q=-0.0 size=N/A time=00:02:25.18 bitrate=N/A speed=13.4x    frame= 3674 fps=323 q=-0.0 size=N/A time=00:02:33.23 bitrate=N/A speed=13.5x    frame= 3864 fps=325 q=-0.0 size=N/A time=00:02:41.16 bitrate=N/A speed=13.6x    frame= 4060 fps=327 q=-0.0 size=N/A time=00:02:49.33 bitrate=N/A speed=13.7x    frame= 4254 fps=329 q=-0.0 size=N/A time=00:02:57.42 bitrate=N/A speed=13.7x    frame= 4441 fps=330 q=-0.0 size=N/A time=00:03:05.22 bitrate=N/A speed=13.8x    frame= 4634 fps=332 q=-0.0 size=N/A time=00:03:13.27 bitrate=N/A speed=13.9x    frame= 4831 fps=334 q=-0.0 size=N/A time=00:03:21.49 bitrate=N/A speed=13.9x    frame= 5022 fps=335 q=-0.0 size=N/A time=00:03:29.45 bitrate=N/A speed=  14x    frame= 5215 fps=336 q=-0.0 size=N/A time=00:03:37.50 bitrate=N/A speed=  14x    frame= 5404 fps=337 q=-0.0 size=N/A time=00:03:45.39 bitrate=N/A speed=14.1x    frame= 5600 fps=338 q=-0.0 size=N/A time=00:03:53.56 bitrate=N/A speed=14.1x    frame= 5788 fps=339 q=-0.0 size=N/A time=00:04:01.40 bitrate=N/A speed=14.2x    frame= 5978 fps=340 q=-0.0 size=N/A time=00:04:09.33 bitrate=N/A speed=14.2x    frame= 6169 fps=341 q=-0.0 size=N/A time=00:04:17.29 bitrate=N/A speed=14.2x    frame= 6364 fps=342 q=-0.0 size=N/A time=00:04:25.43 bitrate=N/A speed=14.3x    frame= 6555 fps=343 q=-0.0 size=N/A time=00:04:33.39 bitrate=N/A speed=14.3x    frame= 6746 fps=344 q=-0.0 size=N/A time=00:04:41.36 bitrate=N/A speed=14.3x    frame= 6944 fps=345 q=-0.0 size=N/A time=00:04:49.62 bitrate=N/A speed=14.4x    frame= 7138 fps=345 q=-0.0 size=N/A time=00:04:57.71 bitrate=N/A speed=14.4x    frame= 7326 fps=346 q=-0.0 size=N/A time=00:05:05.55 bitrate=N/A speed=14.4x    frame= 7514 fps=346 q=-0.0 size=N/A time=00:05:13.39 bitrate=N/A speed=14.4x    frame= 7698 fps=346 q=-0.0 size=N/A time=00:05:21.07 bitrate=N/A speed=14.5x    frame= 7884 fps=347 q=-0.0 size=N/A time=00:05:28.82 bitrate=N/A speed=14.5x    frame= 8066 fps=347 q=-0.0 size=N/A time=00:05:36.41 bitrate=N/A speed=14.5x    frame= 8258 fps=347 q=-0.0 size=N/A time=00:05:44.42 bitrate=N/A speed=14.5x    frame= 8447 fps=348 q=-0.0 size=N/A time=00:05:52.31 bitrate=N/A speed=14.5x    frame= 8644 fps=348 q=-0.0 size=N/A time=00:06:00.52 bitrate=N/A speed=14.5x    frame= 8835 fps=349 q=-0.0 size=N/A time=00:06:08.49 bitrate=N/A speed=14.5x    frame= 9020 fps=349 q=-0.0 size=N/A time=00:06:16.20 bitrate=N/A speed=14.6x    frame= 9220 fps=350 q=-0.0 size=N/A time=00:06:24.55 bitrate=N/A speed=14.6x    frame= 9405 fps=350 q=-0.0 size=N/A time=00:06:32.26 bitrate=N/A speed=14.6x    frame= 9594 fps=350 q=-0.0 size=N/A time=00:06:40.14 bitrate=N/A speed=14.6x    frame= 9788 fps=351 q=-0.0 size=N/A time=00:06:48.24 bitrate=N/A speed=14.6x    frame= 9977 fps=351 q=-0.0 size=N/A time=00:06:56.12 bitrate=N/A speed=14.6x    frame=10149 fps=351 q=-0.0 size=N/A time=00:07:03.29 bitrate=N/A speed=14.6x    frame=10344 fps=351 q=-0.0 size=N/A time=00:07:11.43 bitrate=N/A speed=14.6x    frame=10531 fps=351 q=-0.0 size=N/A time=00:07:19.23 bitrate=N/A speed=14.7x    frame=10715 fps=351 q=-0.0 size=N/A time=00:07:26.90 bitrate=N/A speed=14.7x    frame=10905 fps=352 q=-0.0 size=N/A time=00:07:34.82 bitrate=N/A speed=14.7x    frame=11100 fps=352 q=-0.0 size=N/A time=00:07:42.96 bitrate=N/A speed=14.7x    frame=11277 fps=352 q=-0.0 size=N/A time=00:07:50.34 bitrate=N/A speed=14.7x    frame=11474 fps=353 q=-0.0 size=N/A time=00:07:58.56 bitrate=N/A speed=14.7x    frame=11666 fps=353 q=-0.0 size=N/A time=00:08:06.56 bitrate=N/A speed=14.7x    frame=11847 fps=353 q=-0.0 size=N/A time=00:08:14.11 bitrate=N/A speed=14.7x    frame=12045 fps=353 q=-0.0 size=N/A time=00:08:22.37 bitrate=N/A speed=14.7x    frame=12236 fps=353 q=-0.0 size=N/A time=00:08:30.34 bitrate=N/A speed=14.7x    frame=12436 fps=354 q=-0.0 size=N/A time=00:08:38.68 bitrate=N/A speed=14.8x    frame=12624 fps=354 q=-0.0 size=N/A time=00:08:46.52 bitrate=N/A speed=14.8x    frame=12816 fps=354 q=-0.0 size=N/A time=00:08:54.53 bitrate=N/A speed=14.8x    frame=13010 fps=354 q=-0.0 size=N/A time=00:09:02.62 bitrate=N/A speed=14.8x    frame=13197 fps=355 q=-0.0 size=N/A time=00:09:10.42 bitrate=N/A speed=14.8x    frame=13386 fps=355 q=-0.0 size=N/A time=00:09:18.30 bitrate=N/A speed=14.8x    frame=13570 fps=355 q=-0.0 size=N/A time=00:09:25.98 bitrate=N/A speed=14.8x    frame=13769 fps=355 q=-0.0 size=N/A time=00:09:34.28 bitrate=N/A speed=14.8x    frame=13956 fps=355 q=-0.0 size=N/A time=00:09:42.08 bitrate=N/A speed=14.8x    frame=14135 fps=355 q=-0.0 size=N/A time=00:09:49.54 bitrate=N/A speed=14.8x    frame=14328 fps=356 q=-0.0 size=N/A time=00:09:57.59 bitrate=N/A speed=14.8x    frame=14518 fps=356 q=-0.0 size=N/A time=00:10:05.52 bitrate=N/A speed=14.8x    frame=14706 fps=356 q=-0.0 size=N/A time=00:10:13.36 bitrate=N/A speed=14.8x    frame=14895 fps=356 q=-0.0 size=N/A time=00:10:21.24 bitrate=N/A speed=14.8x    frame=15084 fps=356 q=-0.0 size=N/A time=00:10:29.12 bitrate=N/A speed=14.9x    frame=15258 fps=356 q=-0.0 size=N/A time=00:10:36.38 bitrate=N/A speed=14.8x    frame=15443 fps=356 q=-0.0 size=N/A time=00:10:44.10 bitrate=N/A speed=14.8x    frame=15633 fps=356 q=-0.0 size=N/A time=00:10:52.02 bitrate=N/A speed=14.8x    frame=15824 fps=356 q=-0.0 size=N/A time=00:10:59.99 bitrate=N/A speed=14.9x    frame=16021 fps=356 q=-0.0 size=N/A time=00:11:08.20 bitrate=N/A speed=14.9x    frame=16212 fps=357 q=-0.0 size=N/A time=00:11:16.17 bitrate=N/A speed=14.9x    frame=16405 fps=357 q=-0.0 size=N/A time=00:11:24.22 bitrate=N/A speed=14.9x    frame=16586 fps=357 q=-0.0 size=N/A time=00:11:31.77 bitrate=N/A speed=14.9x    frame=16787 fps=357 q=-0.0 size=N/A time=00:11:40.15 bitrate=N/A speed=14.9x    frame=16975 fps=357 q=-0.0 size=N/A time=00:11:47.99 bitrate=N/A speed=14.9x    frame=17170 fps=357 q=-0.0 size=N/A time=00:11:56.13 bitrate=N/A speed=14.9x    frame=17353 fps=357 q=-0.0 size=N/A time=00:12:03.76 bitrate=N/A speed=14.9x    frame=17549 fps=358 q=-0.0 size=N/A time=00:12:11.93 bitrate=N/A speed=14.9x    frame=17735 fps=358 q=-0.0 size=N/A time=00:12:19.69 bitrate=N/A speed=14.9x    frame=17924 fps=358 q=-0.0 size=N/A time=00:12:27.58 bitrate=N/A speed=14.9x    frame=18123 fps=358 q=-0.0 size=N/A time=00:12:35.88 bitrate=N/A speed=14.9x    frame=18296 fps=358 q=-0.0 size=N/A time=00:12:43.09 bitrate=N/A speed=14.9x    frame=18490 fps=358 q=-0.0 size=N/A time=00:12:51.18 bitrate=N/A speed=14.9x    frame=18679 fps=358 q=-0.0 size=N/A time=00:12:59.06 bitrate=N/A speed=14.9x    frame=18873 fps=358 q=-0.0 size=N/A time=00:13:07.16 bitrate=N/A speed=14.9x    frame=19060 fps=358 q=-0.0 size=N/A time=00:13:14.96 bitrate=N/A speed=14.9x    frame=19253 fps=359 q=-0.0 size=N/A time=00:13:23.01 bitrate=N/A speed=  15x    frame=19448 fps=359 q=-0.0 size=N/A time=00:13:31.14 bitrate=N/A speed=  15x    frame=19639 fps=359 q=-0.0 size=N/A time=00:13:39.10 bitrate=N/A speed=  15x    frame=19822 fps=359 q=-0.0 size=N/A time=00:13:46.74 bitrate=N/A speed=  15x    frame=20021 fps=359 q=-0.0 size=N/A time=00:13:55.04 bitrate=N/A speed=  15x    frame=20210 fps=359 q=-0.0 size=N/A time=00:14:02.92 bitrate=N/A speed=  15x    frame=20397 fps=359 q=-0.0 size=N/A time=00:14:10.72 bitrate=N/A speed=  15x    frame=20580 fps=359 q=-0.0 size=N/A time=00:14:18.35 bitrate=N/A speed=  15x    frame=20773 fps=359 q=-0.0 size=N/A time=00:14:26.40 bitrate=N/A speed=  15x    frame=20961 fps=359 q=-0.0 size=N/A time=00:14:34.24 bitrate=N/A speed=  15x    frame=21154 fps=359 q=-0.0 size=N/A time=00:14:42.29 bitrate=N/A speed=  15x    frame=21350 fps=360 q=-0.0 size=N/A time=00:14:50.47 bitrate=N/A speed=  15x    frame=21534 fps=360 q=-0.0 size=N/A time=00:14:58.14 bitrate=N/A speed=  15x    frame=21727 fps=360 q=-0.0 size=N/A time=00:15:06.19 bitrate=N/A speed=  15x    frame=21924 fps=360 q=-0.0 size=N/A time=00:15:14.41 bitrate=N/A speed=  15x    frame=22123 fps=360 q=-0.0 size=N/A time=00:15:22.71 bitrate=N/A speed=  15x    frame=22312 fps=360 q=-0.0 size=N/A time=00:15:30.59 bitrate=N/A speed=  15x    frame=22502 fps=360 q=-0.0 size=N/A time=00:15:38.52 bitrate=N/A speed=  15x    frame=22698 fps=360 q=-0.0 size=N/A time=00:15:46.69 bitrate=N/A speed=  15x    frame=22890 fps=360 q=-0.0 size=N/A time=00:15:54.70 bitrate=N/A speed=  15x    frame=23075 fps=360 q=-0.0 size=N/A time=00:16:02.41 bitrate=N/A speed=  15x    frame=23269 fps=360 q=-0.0 size=N/A time=00:16:10.51 bitrate=N/A speed=  15x    frame=23455 fps=360 q=-0.0 size=N/A time=00:16:18.26 bitrate=N/A speed=  15x    frame=23646 fps=360 q=-0.0 size=N/A time=00:16:26.23 bitrate=N/A speed=  15x    frame=23839 fps=361 q=-0.0 size=N/A time=00:16:34.28 bitrate=N/A speed=  15x    frame=24028 fps=361 q=-0.0 size=N/A time=00:16:42.16 bitrate=N/A speed=  15x    frame=24219 fps=361 q=-0.0 size=N/A time=00:16:50.13 bitrate=N/A speed=  15x    frame=24412 fps=361 q=-0.0 size=N/A time=00:16:58.18 bitrate=N/A speed=  15x    frame=24607 fps=361 q=-0.0 size=N/A time=00:17:06.31 bitrate=N/A speed=15.1x    frame=24803 fps=361 q=-0.0 size=N/A time=00:17:14.49 bitrate=N/A speed=15.1x    frame=24995 fps=361 q=-0.0 size=N/A time=00:17:22.49 bitrate=N/A speed=15.1x    frame=25187 fps=361 q=-0.0 size=N/A time=00:17:30.50 bitrate=N/A speed=15.1x    frame=25387 fps=361 q=-0.0 size=N/A time=00:17:38.84 bitrate=N/A speed=15.1x    frame=25575 fps=361 q=-0.0 size=N/A time=00:17:46.69 bitrate=N/A speed=15.1x    frame=25763 fps=361 q=-0.0 size=N/A time=00:17:54.53 bitrate=N/A speed=15.1x    frame=25959 fps=361 q=-0.0 size=N/A time=00:18:02.70 bitrate=N/A speed=15.1x    frame=26150 fps=362 q=-0.0 size=N/A time=00:18:10.67 bitrate=N/A speed=15.1x    frame=26343 fps=362 q=-0.0 size=N/A time=00:18:18.72 bitrate=N/A speed=15.1x    frame=26530 fps=362 q=-0.0 size=N/A time=00:18:26.52 bitrate=N/A speed=15.1x    frame=26720 fps=362 q=-0.0 size=N/A time=00:18:34.44 bitrate=N/A speed=15.1x    frame=26906 fps=362 q=-0.0 size=N/A time=00:18:42.20 bitrate=N/A speed=15.1x    frame=27086 fps=362 q=-0.0 size=N/A time=00:18:49.71 bitrate=N/A speed=15.1x    frame=27268 fps=362 q=-0.0 size=N/A time=00:18:57.30 bitrate=N/A speed=15.1x    frame=27457 fps=362 q=-0.0 size=N/A time=00:19:05.18 bitrate=N/A speed=15.1x    frame=27650 fps=362 q=-0.0 size=N/A time=00:19:13.23 bitrate=N/A speed=15.1x    frame=27836 fps=362 q=-0.0 size=N/A time=00:19:20.99 bitrate=N/A speed=15.1x    frame=28031 fps=362 q=-0.0 size=N/A time=00:19:29.12 bitrate=N/A speed=15.1x    frame=28222 fps=362 q=-0.0 size=N/A time=00:19:37.09 bitrate=N/A speed=15.1x    frame=28408 fps=362 q=-0.0 size=N/A time=00:19:44.85 bitrate=N/A speed=15.1x    frame=28597 fps=362 q=-0.0 size=N/A time=00:19:52.73 bitrate=N/A speed=15.1x    frame=28786 fps=362 q=-0.0 size=N/A time=00:20:00.61 bitrate=N/A speed=15.1x    frame=28959 fps=362 q=-0.0 size=N/A time=00:20:07.83 bitrate=N/A speed=15.1x    frame=29134 fps=362 q=-0.0 size=N/A time=00:20:15.13 bitrate=N/A speed=15.1x    frame=29320 fps=361 q=-0.0 size=N/A time=00:20:22.88 bitrate=N/A speed=15.1x    frame=29498 fps=361 q=-0.0 size=N/A time=00:20:30.31 bitrate=N/A speed=15.1x    frame=29672 fps=361 q=-0.0 size=N/A time=00:20:37.56 bitrate=N/A speed=15.1x    frame=29848 fps=361 q=-0.0 size=N/A time=00:20:44.91 bitrate=N/A speed=15.1x    frame=30017 fps=361 q=-0.0 size=N/A time=00:20:51.95 bitrate=N/A speed=15.1x    frame=30197 fps=361 q=-0.0 size=N/A time=00:20:59.46 bitrate=N/A speed=  15x    frame=30384 fps=361 q=-0.0 size=N/A time=00:21:07.26 bitrate=N/A speed=  15x    frame=30571 fps=361 q=-0.0 size=N/A time=00:21:15.06 bitrate=N/A speed=15.1x    frame=30765 fps=361 q=-0.0 size=N/A time=00:21:23.15 bitrate=N/A speed=15.1x    frame=30964 fps=361 q=-0.0 size=N/A time=00:21:31.45 bitrate=N/A speed=15.1x    frame=31153 fps=361 q=-0.0 size=N/A time=00:21:39.33 bitrate=N/A speed=15.1x    frame=31343 fps=361 q=-0.0 size=N/A time=00:21:47.26 bitrate=N/A speed=15.1x    frame=31533 fps=361 q=-0.0 size=N/A time=00:21:55.18 bitrate=N/A speed=15.1x    frame=31716 fps=361 q=-0.0 size=N/A time=00:22:02.82 bitrate=N/A speed=15.1x    frame=31894 fps=361 q=-0.0 size=N/A time=00:22:10.24 bitrate=N/A speed=15.1x    frame=32085 fps=361 q=-0.0 size=N/A time=00:22:18.21 bitrate=N/A speed=15.1x    frame=32275 fps=361 q=-0.0 size=N/A time=00:22:26.13 bitrate=N/A speed=15.1x    frame=32463 fps=361 q=-0.0 size=N/A time=00:22:33.97 bitrate=N/A speed=15.1x    frame=32645 fps=361 q=-0.0 size=N/A time=00:22:41.56 bitrate=N/A speed=15.1x    frame=32800 fps=361 q=-0.0 size=N/A time=00:22:48.03 bitrate=N/A speed=  15x    frame=32970 fps=361 q=-0.0 size=N/A time=00:22:55.12 bitrate=N/A speed=  15x    frame=33148 fps=360 q=-0.0 size=N/A time=00:23:02.54 bitrate=N/A speed=  15x    frame=33327 fps=360 q=-0.0 size=N/A time=00:23:10.01 bitrate=N/A speed=  15x    frame=33495 fps=360 q=-0.0 size=N/A time=00:23:17.02 bitrate=N/A speed=  15x    frame=33651 fps=360 q=-0.0 size=N/A time=00:23:23.52 bitrate=N/A speed=  15x    frame=33791 fps=359 q=-0.0 size=N/A time=00:23:29.36 bitrate=N/A speed=  15x    frame=33925 fps=359 q=-0.0 size=N/A time=00:23:34.95 bitrate=N/A speed=  15x    frame=34093 fps=359 q=-0.0 size=N/A time=00:23:41.96 bitrate=N/A speed=  15x    frame=34256 fps=358 q=-0.0 size=N/A time=00:23:48.76 bitrate=N/A speed=14.9x    frame=34387 fps=358 q=-0.0 size=N/A time=00:23:54.22 bitrate=N/A speed=14.9x    frame=34549 fps=358 q=-0.0 size=N/A time=00:24:00.98 bitrate=N/A speed=14.9x    [Parsed_psnr_16 @ 000002146fa658c0] PSNR y:48.537781 u:50.255848 v:50.333298 average:49.048233 min:36.920387 max:inf
[out#0/null @ 0000021468568a00] video:14903KiB audio:271276KiB subtitle:0KiB other streams:0KiB global headers:0KiB muxing overhead: unknown
frame=34683 fps=358 q=-0.0 Lsize=N/A time=00:24:06.57 bitrate=N/A speed=14.9x    
